<?xml version="1.0" encoding="utf-8"?>
<!DOCTYPE svg PUBLIC "-//W3C//DTD SVG 1.1//EN" "http://www.w3.org/Graphics/SVG/1.1/DTD/svg11.dtd">
<svg version="1.1" id="boat_layer" xmlns="http://www.w3.org/2000/svg" xmlns:xlink="http://www.w3.org/1999/xlink" x="0px" y="0px"
	 viewBox="0 0 308 46" enable-background="new 0 0 308 46" xml:space="preserve">
<g id="boat">
	<polygon id="XMLID_7_" fill="#F3F7F8" points="58.8,15.5 107,0.5 101.8,16.6 	"/>
	<path id="XMLID_6_" fill="#D6695B" d="M164.6,26.4h-13.7c-2.3,0-4.2-1.9-4.2-4.2v-4.6c0-2.3,1.9-4.2,4.2-4.2H162
		c1.5,0,2.9,0.8,3.7,2.1l2.6,4.6C169.9,22.9,167.8,26.4,164.6,26.4z"/>
	<path id="XMLID_5_" fill="#68544B" d="M126,15.1c1.1,4.3,5.5,8-6.4,8c-3.5,0-4.6-3.6-4.6-8s1.1-8,4.6-8
		C121.8,7.1,124.9,10.5,126,15.1z"/>
	<ellipse id="XMLID_4_" fill="#574137" cx="117.1" cy="4.3" rx="3.9" ry="4.1"/>
	<path id="XMLID_3_" fill="#F2AE16" d="M4,6.8c17,33.9,39.1,39.1,39.1,39.1H180l-19.6-19.6C146.1,17.2,4,6.8,4,6.8z"/>
	<path id="XMLID_2_" fill="#E7EEF0" d="M41.2,45.9C34.6,36.1,62,26.4,66.9,26.4c4.9,0,0,7.8,0,7.8s6.2-3.9,8.8-4.2
		c2.6-0.3,0,7.2,0,7.2s8.1-3.3,11.4-2.9c3.3,0.3-5.5,5.5-5.5,5.5s13.9-3.5,20.4-2.2c6.5,1.3-4.9,2.9-4.9,2.9l207.1,5.5H41.2z"/>
</g>
</svg>
