<?xml version="1.0" encoding="utf-8"?>
<!DOCTYPE svg PUBLIC "-//W3C//DTD SVG 1.1//EN" "http://www.w3.org/Graphics/SVG/1.1/DTD/svg11.dtd">
<svg version="1.1" id="cloud" xmlns="http://www.w3.org/2000/svg" xmlns:xlink="http://www.w3.org/1999/xlink" x="0px" y="0px"
	 viewBox="0 0 224 62" enable-background="new 0 0 224 62" xml:space="preserve">
<path id="XMLID_2_" fill="#E7EEF0" d="M182.6,23.3c-1.3,0-2.6,0-3.9,0.1C178,12.5,165.9,3.8,150.9,3.8c-6.9,0-13.2,1.8-18,4.9
	c-5.6-4.2-13.6-6.8-22.5-6.8c-7.7,0-14.8,2-20.2,5.3c-6.1-4.4-14-7.1-22.8-7.1c-13.1,0-24.5,6-30.2,14.7c-3.1-1-6.5-1.5-10-1.5
	c-14.9,0-27,9.4-27,21s12.1,21,27,21c7.4,0,14.1-2.3,19-6c5.8,3.8,13.2,6,21.3,6c5.9,0,11.4-1.2,16.2-3.3c6.9,5.8,22,9.9,39.5,9.9
	c16.5,0,30.8-3.6,38.2-8.9c6.2,1.4,13.5,2.3,21.3,2.3c22.8,0,41.4-7.1,41.4-16S205.4,23.3,182.6,23.3z"/>
</svg>
