<?xml version="1.0" encoding="utf-8"?>
<!DOCTYPE svg PUBLIC "-//W3C//DTD SVG 1.1//EN" "http://www.w3.org/Graphics/SVG/1.1/DTD/svg11.dtd">
<svg version="1.1" id="Lag_1" xmlns="http://www.w3.org/2000/svg" xmlns:xlink="http://www.w3.org/1999/xlink" x="0px" y="0px"
	 viewBox="0 0 1920 579" enable-background="new 0 0 1920 579" xml:space="preserve">
<path id="sky" fill="#F3F7F8" d="M1920,87.8c-0.2,0-0.3,0-0.5,0c-60.3,0-113.3,11.5-143.8,28.8c-16.4-5.4-36.7-8.6-58.7-8.6
	c-23.2,0-44.5,3.5-61.3,9.4c-17.2-10.5-39.8-17.9-65.1-20.4c-24.8-30.5-83.1-52-151.2-52c-30.3,0-58.6,4.3-82.9,11.7
	c-37.2-25.1-91.4-41-151.8-41c-53,0-101.2,12.2-137.3,32.1c-16-1.8-32.7-2.8-50-2.8c-33.8,0-65.6,3.7-93.6,10.3
	C892.1,22.6,823.7,0,744.3,0C660,0,588.1,25.5,559.4,61.4c-15.8-2.4-33.2-3.7-51.3-3.7c-19.9,0-38.9,1.6-56,4.4
	c-23.6-15.2-57.3-24.6-94.7-24.6c-57.7,0-106.6,22.6-123.2,53.8c-12.2-1.3-25.2-2-38.5-2c-34.1,0-65.2,4.6-89.2,12.2
	C77.3,92.9,40.3,87.8,0,87.8V579h1919.9V213.8c0,0,0.1,0,0.1,0V87.8z"/>
</svg>
